<svg width="349" height="330" viewBox="0 0 349 330" fill="none" xmlns="http://www.w3.org/2000/svg">
<path d="M13.1489 142.935C36.3349 142.512 60.9619 143.012 84.2959 143.021L215.957 142.908L294.791 142.898C308.394 142.875 322.047 142.748 335.626 142.956C341.297 143.483 346.231 146.859 347.424 152.679C348.245 156.683 348.302 161.939 348.111 166.082C347.849 171.778 349.066 178.628 346.006 183.594C343.805 187.165 340.411 188.749 336.466 189.758L134.753 190.003L56.7769 189.903C43.1439 189.877 29.3299 189.835 15.7959 189.719C-0.735095 190.032 0.238905 176.879 0.351905 164.622C0.448905 154.17 -0.189098 144.569 13.1489 142.935Z" fill="#FB5928"/>
<path d="M11.2748 285.431C26.6418 284.911 44.9948 285.472 60.5638 285.496L156.685 285.521L271.678 285.504C291.804 285.499 312.019 285.541 332.095 285.559C349.274 285.575 348.113 293.343 348.039 307.765C347.989 317.481 348.939 325.662 337.318 328.703C282.178 329.534 224.698 328.583 169.368 328.62L67.4768 328.71C50.6168 328.723 33.5148 328.705 16.7438 328.725C-1.57024 328.746 -0.0842396 318.586 0.10576 303.835C0.22276 294.821 0.526767 287.274 11.2748 285.431Z" fill="#FEFEFE"/>
<path d="M57.5215 0.373824C69.7555 -0.353176 88.4604 0.203825 101.157 0.205825L184.594 0.225844L280.66 0.207839C298.806 0.198839 316.975 0.0568362 335.102 0.448836C349.576 0.760836 348.668 13.5428 348.247 24.2608C347.863 34.0368 349.885 42.5508 337.966 45.6618C307.457 46.1448 275.769 45.7478 245.181 45.7638L46.8575 45.6248C46.8035 36.9938 44.9805 12.1358 49.3065 5.38585C51.3355 2.22085 53.9575 1.09982 57.5215 0.373824Z" fill="#FEFEFE"/>
<path d="M46.7658 214.692C75.0348 214.238 104.63 214.675 132.986 214.682L301.807 214.703L301.716 260.643C274.752 261.515 243.324 260.695 216.03 260.702L46.7058 260.687C46.6318 245.355 46.6518 230.023 46.7658 214.692Z" fill="#FEFEFE"/>
<path d="M46.8485 71.2208L301.849 71.1988C301.899 86.4695 301.869 101.74 301.759 117.01L46.7305 116.948L46.8485 71.2208Z" fill="#FEFEFE"/>
</svg>
